<?xml version="1.0" encoding="utf-8"?>
<svg viewBox="0 0 500 500" xmlns="http://www.w3.org/2000/svg">
  <path d="M 71.812 168.193 C 30.791 168.193 5.152 212.107 25.663 247.237 C 35.182 263.542 52.773 273.586 71.812 273.586 C 112.832 273.586 138.47 229.672 117.96 194.541 C 108.441 178.237 90.849 168.193 71.812 168.193 Z M 249.436 168.193 C 208.415 168.193 182.778 212.107 203.288 247.237 C 212.806 263.542 230.399 273.586 249.436 273.586 C 290.457 273.586 316.095 229.672 295.584 194.541 C 286.066 178.237 268.473 168.193 249.436 168.193 Z M 427.06 168.193 C 386.04 168.193 360.402 212.107 380.912 247.237 C 390.432 263.542 408.023 273.586 427.06 273.586 C 468.081 273.586 493.719 229.672 473.209 194.541 C 463.69 178.237 446.099 168.193 427.06 168.193 Z" style=""/>
  <ellipse style="stroke: rgb(0, 0, 0); fill: rgb(250, 249, 248); stroke-width: 5px;" cx="71.86" cy="220.292" rx="52.9" ry="52.602"/>
  <ellipse style="stroke: rgb(0, 0, 0); fill: rgb(250, 249, 248); stroke-width: 5px;" cx="249.281" cy="221.176" rx="52.9" ry="52.602"/>
  <ellipse style="stroke: rgb(0, 0, 0); fill: rgb(250, 249, 248); stroke-width: 5px;" cx="426.846" cy="220.567" rx="52.9" ry="52.602"/>
</svg>